<svg xmlns="http://www.w3.org/2000/svg" viewBox="0 0 512 640" style="enable-background:new 0 0 512 512" xml:space="preserve"><path d="M152.18 331.68c-6.65 0-12.42-1.31-17.99-2.58l-.58-.13c-5.26-1.2-11.24-2.55-18.17-2.56-.22 0-.43.01-.62.01h-.05c-1.76.02-3.48.05-5.29.09h-.19c-1.06.021-1.91.06-2.6.1-.57.03-1.07.051-1.51.051-.26 0-.51 0-.87-.051-.06-.02-.12-.029-.18-.04-.35-.06-.83-.149-1.58-.739-.63-.48-1.12-1.561-1.08-2.36.06-1.08.38-1.54.59-1.85.05-.061.08-.11.11-.16.22-.29.4-.47.57-.641l.03-.029c.27-.26.55-.51.88-.8.1-.101.22-.2.34-.311 1.05-.95 2.34-2.149 3.91-3.88 7.06-7.76 10.6-11.53 14.85-14.94 1.25-1 3.21-.79 4.22.46.5.631.72 1.41.64 2.211-.09.789-.48 1.51-1.11 2.01-3.9 3.13-7.48 6.939-14.16 14.3-.2.21-.39.42-.58.62 1.14-.021 2.08-.03 2.95-.04h.74c7.55 0 13.9 1.43 19.49 2.7l.16.04c5.7 1.3 11.08 2.52 17.07 2.52h.01c2.09 0 4.13-.14 6.23-.439 6.29-.87 12.55-2.4 19.18-4.011 5.09-1.239 10.35-2.52 15.71-3.51l1.35-.24c5.25-.91 9.79-1.359 13.87-1.359h.04c6.11 0 10.77 1.05 14.88 1.979l.26.061c4.39.989 8.94 2.01 15.71 2.43.45.04 3.62.07 7.69.08 3.84.02 9.16.03 16.74.03 12.38 0 27.37-.03 40.58-.051 7.439-.01 14.22-.02 19.5-.02-5.23-9.61-9.69-18.19-14.41-28.82-1.06-2.399-6.28-12.35-9.729-17.71-1-1.609-2.011-2.88-2.271-3.14-6.89-3.91-13.9-8.76-20.67-13.46-2.16-1.49-4.19-2.9-6.22-4.28l-.021-.02c-6.21-4.3-10.109-8.29-14.38-13.35-2.01-2.38-4.34-4.86-6.59-7.27-2.97-3.17-6.04-6.44-8.54-9.64l-1.21-1.48c-6.81-8.32-13.51-14.09-21.27-20.78-1.28-1.11-2.61-2.25-3.96-3.42-5.35 4.23-10.27 7.09-14.62 9.63-1.71.99-3.31 1.92-4.89 2.9-6.78 4.21-12.25 8.63-18.58 17.63-2.23 3.17-4.05 5.46-5.65 7.49-1.24 1.57-2.32 2.93-3.25 4.29-2.01 2.94-3.68 6.19-5.79 13.25-.39 1.33-.79 2.71-1.17 4.04-.46 1.59-.93 3.24-1.41 4.87-.19.62-.39 1.311-.61 2.051-1.03 3.55-2.45 8.42-4.2 13.239a3 3 0 1 1-5.64-2.041c1.68-4.63 3.08-9.43 4.1-12.939.21-.72.41-1.4.6-2.021.46-1.56.92-3.169 1.36-4.72.4-1.37.8-2.79 1.21-4.18 1.99-6.69 3.9-11.02 6.61-14.95 1.13-1.63 2.27-3.08 3.6-4.76 1.53-1.93 3.26-4.12 5.32-7.07 7.3-10.44 14.09-15.44 20.34-19.28 1.7-1.05 3.41-2.05 5.08-3.02 4.93-2.87 10.02-5.84 15.73-10.64 1.1-.92 2.83-.9 3.91.05 2.01 1.77 3.97 3.46 5.88 5.1 7.59 6.54 14.77 12.72 21.94 21.48l1.26 1.54c2.23 2.87 5.07 5.9 8.07 9.11 2.34 2.5 4.76 5.09 6.95 7.66 4.25 5.01 7.46 8.29 13.19 12.28 0 0 0 .01.01.01 2.02 1.37 4.13 2.83 6.16 4.24 6.79 4.7 13.8 9.56 20.43 13.3.91.56 1.34 1.08 1.85 1.69.07.079.141.159.21.25.54.68 1.131 1.52 1.82 2.56 1.15 1.77 2.54 4.08 4.12 6.88 2.84 5.03 5.479 10.14 6.4 12.18 5.54 12.48 10.8 22.24 16.619 32.82.511.92.49 2.061-.05 2.97a3.013 3.013 0 0 1-2.58 1.471c-5.489 0-14.21.02-24.3.029-13.3.021-28.37.04-40.84.04-7.33 0-12.81 0-16.76-.02-4.29-.021-7.12-.04-8.03-.09-7.22-.44-12.24-1.57-16.66-2.57l-.27-.06c-4.18-.931-8.13-1.82-13.6-1.83-3.73 0-7.93.42-12.83 1.27l-1.33.24c-5.03.91-10.15 2.16-15.09 3.37-6.52 1.59-13.26 3.229-20.03 4.189a52.143 52.143 0 0 1-7.058.491zm-10.79-36.29c-1.05 0-2.04-.56-2.58-1.47-.41-.69-.53-1.49-.33-2.271a3 3 0 0 1 1.36-1.83l.01-.01c.47-.279 1-.42 1.54-.42 1.05 0 2.04.561 2.58 1.46.84 1.42.38 3.271-1.05 4.12h-.01c-.46.271-.99.421-1.52.421z"/><path d="M69.68 327.14a3 3 0 0 1-2.74-1.79 2.97 2.97 0 0 1 .58-3.29c4.22-4.37 8.05-8.79 11.76-13.05 5.25-6.05 10.68-12.31 17.35-18.61 8.65-8.14 13.8-13.84 20.41-22.59 5.37-7.24 9.49-12.08 17.09-18.42.52-.43 1.03-.86 1.54-1.28 3.37-2.78 6.55-5.41 9.74-8.23 1-.88 2.57-.98 3.67-.23 3.85 2.62 7.98 5.41 12.11 8.12 1.1.73 1.61 2.12 1.22 3.39-.33 1.07-.75 2.51-1.24 4.18-2.36 8.07-6.32 21.58-10.64 30.43-1.74 3.431-3.39 6.431-6.06 8.261-2.95 1.92-5.52 3.409-7.79 4.72-1.43.83-2.78 1.609-4.08 2.42-3.43 2.12-6.54 4.37-10.61 8.43-2.67 2.67-5.34 5.57-7.92 8.38-.84.91-1.68 1.83-2.52 2.73-2.06 2.229-3.4 3.66-4.95 4.72-1.38.98-3.28 1.521-5.11 1.47-.8 0-1.6-.05-2.52-.109-1.31-.08-2.8-.17-4.85-.17h-.72c-6.14 0-12.05.18-18.31.37-1.77.05-3.54.1-5.33.149l-.08-.001zm77.95-81.23c-2.73 2.36-5.52 4.66-8.21 6.89-.48.4-.97.8-1.45 1.2-7.2 6.04-10.8 10.25-16.12 17.399l-.01.011c-6.76 8.96-12.28 15.08-21.09 23.359-6.35 5.98-11.43 11.83-16.81 18.021-2.3 2.649-4.68 5.399-7.17 8.14 5.57-.16 11.03-.31 16.63-.31h.7c2.33.01 4.13.12 5.44.199.79.04 1.41.08 1.88.08h.07c1.07-.04 1.07-.04 1.7-.409l.05-.03c.69-.45 1.97-1.7 3.9-3.811l2.48-2.689c2.62-2.851 5.33-5.8 8.12-8.601 4.76-4.77 8.59-7.38 11.7-9.3 1.44-.88 2.84-1.689 4.32-2.55 2.3-1.33 4.68-2.71 7.43-4.5.64-.32 2.4-2.6 3.95-5.88 1.45-2.96 3.03-6.9 4.71-11.72 2.25-6.44 4.19-13.091 5.62-17.94.2-.68.38-1.32.56-1.92a673.791 673.791 0 0 1-8.4-5.639z"/><path d="M62.38 327.34c-4.51 0-9.25-.16-13.44-.3-.74-.021-1.48-.04-2.19-.07a2.96 2.96 0 0 1-2.72-1.979c-.43-1.16-.1-2.44.83-3.261 11.36-10.09 15.01-13.979 24.4-26.04 7.72-9.96 12.99-14.84 22.39-22.88.61-.529 1.41-.79 2.21-.72.79.07 1.54.46 2.05 1.08.23.27.88 1 1.7 1.93.51.561 1.08 1.21 1.68 1.891 1.49 1.68 3.37 3.85 4.83 5.68l.16.21c.87 1.13 1.51 1.939 2.01 3.01l.06.15c.13.31.28.67.3 1.42 0 .08 0 .149-.01.22-.04.61-.25 1.18-.62 1.66l-1.37 1.7c-10.98 9.91-16.5 16.439-25.64 27.26-.13.15-.33.39-.58.7-.62.75-1.57 1.89-2.56 3.04l-.12.14c-1.42 1.601-2.75 3.12-4.11 4.13-.1.061-.19.12-.29.19-.37.26-.8.55-1.91.67-2.06.109-4.37.169-7.06.169zm-7.99-6.13c6.15.17 10.44.17 14.02.01.09-.08.19-.18.29-.27.65-.62 1.48-1.53 2.07-2.19 1.11-1.26 2.24-2.62 2.98-3.52.28-.341.51-.62.68-.811 8.85-10.49 14.7-17.42 25.57-27.28l-.12-.159c-.69-.91-1.71-2.141-3.03-3.671-1.19-1.39-2.4-2.75-3.54-4.029-7.99 6.93-12.45 11.26-19.31 20.08-8.02 10.33-12.25 15.04-19.61 21.84zM328.979 326.62c-1.1 0-2.1-.59-2.63-1.551-.52-.939-1.03-1.869-1.54-2.8-4.979-9.029-9.689-17.56-14.01-27.47v-.01c-2.02-4.69-3.96-8.851-6.88-13.891a2.983 2.983 0 0 1-.09-2.84c4.56-9.26 6.29-13.83 8.21-24.32.189-1.03.91-1.9 1.89-2.27.96-.37 2.101-.19 2.92.44.84.66 1.641 1.29 2.42 1.9 8.8 6.85 13.65 10.629 20.95 20.79 5.33 7.391 9.74 11.84 15.33 17.46 1.97 1.98 4 4.03 6.27 6.4 5.15 5.41 8.66 10.51 12.37 15.92 1.641 2.39 3.351 4.86 5.19 7.35.67.91.78 2.15.26 3.15a2.986 2.986 0 0 1-2.67 1.63h-.04c-4.03-.05-8.25-.08-12.899-.08-6.431 0-12.961.05-19.271.101-5.159.04-10.489.08-15.78.091zm-12.669-34.2c4.21 9.649 8.891 18.14 13.84 27.12l.601 1.08c4.63-.021 9.319-.051 13.85-.09 6.36-.051 12.931-.101 19.431-.101 2.51 0 4.819.01 7.069.021-.66-.931-1.3-1.86-1.92-2.761-3.58-5.21-6.97-10.14-11.7-15.09-2.18-2.28-4.199-4.31-6.149-6.27-5.55-5.59-10.351-10.41-15.98-18.221-6.569-9.069-10.39-12.229-18.359-18.46-1.511 6.95-3.311 11.92-7.08 19.641 2.267 4.041 4.127 7.851 6.397 13.131z"/><path d="M399.99 314.64c-6.83 0-12.29-.01-16.23-.02-4.49-.021-6.92-.04-7.76-.09a87.915 87.915 0 0 1-8.57-.931c-.79-.13-1.51-.58-1.97-1.229-2.67-3.74-5.2-6.84-7.98-9.771-2.18-2.28-4.189-4.3-6.14-6.26-5.55-5.59-10.35-10.42-15.99-18.23-6.55-9.04-10.37-12.21-18.359-18.46-1.511 6.95-3.311 11.92-7.08 19.641 1.659 2.939 3.14 5.87 4.67 9.22 0 0 0 .01.01.01l.02.04a3.004 3.004 0 0 1-1.46 3.96c-1.46.681-3.3.011-3.979-1.42-1.01-2.12-3.25-6.439-5.58-10.58-2.47-4.43-4.92-8.31-5.95-9.42a2.157 2.157 0 0 0-.14-.149c-2.98-1.681-6.271-3.71-10.05-6.21a2.983 2.983 0 0 1-1.181-3.49c.45-1.311.9-2.66 1.33-4.01.4-1.25 1.55-2.09 2.86-2.09a3 3 0 0 1 2.859 3.91c-.199.63-.409 1.29-.63 1.94 2.931 1.89 5.511 3.46 7.891 4.8.87.53 1.29 1.02 1.77 1.59.07.07.13.141.2.22.5.631 1.04 1.37 1.69 2.351.59.88 1.25 1.93 1.97 3.12 2.939-6.45 4.3-10.98 5.83-19.34.189-1.03.91-1.9 1.89-2.27.97-.37 2.11-.19 2.92.45.87.68 1.71 1.34 2.51 1.96 8.761 6.83 13.58 10.59 20.86 20.72 5.32 7.391 9.73 11.83 15.32 17.45 1.97 1.99 4.01 4.04 6.279 6.42 2.74 2.88 5.221 5.86 7.78 9.38 2.25.33 4.46.561 6.76.69.381.029 3.061.06 7.421.08 3.93.02 9.38.02 16.21.02 14.149 0 32.069-.03 46.46-.06 5.439-.011 10.369-.011 14.42-.021-5.28-9.71-9.761-18.33-14.42-28.819-1.03-2.351-6.221-12.261-9.721-17.69-1-1.62-2-2.88-2.26-3.14-6.8-3.86-13.74-8.66-20.439-13.3-2.24-1.55-4.36-3.02-6.461-4.44l-.02-.02c-6.21-4.3-9.98-8.16-14.38-13.37-2.01-2.37-4.34-4.85-6.59-7.26-2.971-3.17-6.04-6.44-8.55-9.64h-.011l-1.189-1.49c-6.79-8.28-13.471-14.04-21.19-20.7-1.31-1.13-2.66-2.29-4.03-3.49-5.35 4.24-10.279 7.11-14.64 9.64-1.689.99-3.3 1.92-4.87 2.9-6.78 4.2-12.25 8.61-18.58 17.6-2.18 3.12-3.979 5.39-5.56 7.39l-.4.5c-.99 1.26-2.95 1.49-4.21.5a3.003 3.003 0 0 1-1.14-2.37c0-.67.22-1.31.649-1.85l.381-.49c1.54-1.94 3.279-4.14 5.369-7.12 7.29-10.43 14.08-15.42 20.33-19.27 1.69-1.04 3.4-2.04 5.061-3 4.939-2.88 10.04-5.85 15.76-10.65 1.1-.92 2.83-.9 3.91.05 2.03 1.79 4.02 3.5 5.939 5.16 7.57 6.52 14.71 12.68 21.87 21.41l1.25 1.55c2.221 2.86 5.061 5.88 8.051 9.08 2.35 2.51 4.779 5.1 6.96 7.67 4.29 5.05 7.51 8.33 13.189 12.3h.01c2.101 1.43 4.29 2.95 6.41 4.41 6.71 4.65 13.65 9.45 20.17 13.13.92.56 1.351 1.08 1.86 1.68.07.09.14.17.21.26.54.67 1.12 1.49 1.83 2.561 1.16 1.77 2.55 4.09 4.13 6.88 2.86 5.069 5.49 10.18 6.38 12.189 5.45 12.26 10.76 22.11 16.63 32.8.5.921.49 2.061-.05 2.971s-1.53 1.47-2.58 1.47c-4.62.01-11.58.02-19.63.03-14.349.026-32.199.057-46.309.057zm-103.881-72.68c-.3 0-.59-.04-.869-.13-.771-.23-1.4-.75-1.78-1.45-.38-.71-.46-1.52-.22-2.29a2.982 2.982 0 0 1 2.869-2.13 3.005 3.005 0 0 1 2.87 3.87 3.01 3.01 0 0 1-2.87 2.13z"/><path d="M398.51 314.64c-14.22 0-21.16-.04-22.51-.109a88.557 88.557 0 0 1-8.57-.931c-.79-.13-1.51-.58-1.97-1.229-2.66-3.73-5.2-6.84-7.98-9.771-2.18-2.28-4.199-4.31-6.149-6.27-5.55-5.59-10.351-10.41-15.98-18.221-6.54-9.04-10.37-12.21-18.359-18.46-1.511 6.95-3.311 11.92-7.08 19.641 1.54 2.72 2.939 5.47 4.409 8.67.19.399.28.82.28 1.26v.021c0 1.399-.95 2.6-2.319 2.92-1.341.31-2.78-.38-3.37-1.61-1.04-2.12-3.061-6-5.24-9.87-2.3-4.13-4.48-7.62-5.67-9.12-.601-.77-.8-1.79-.51-2.729 1.38-4.57 2.79-7.7 4.739-10.48.801-1.149 1.62-2.2 2.5-3.3 1.07-1.36 2.29-2.9 3.73-4.97 5.26-7.52 10.34-11.23 14.63-13.86 1.2-.74 2.42-1.44 3.59-2.12 3.45-2.02 7.03-4.1 11-7.44 1.101-.93 2.84-.91 3.92.05 1.44 1.27 2.87 2.5 4.25 3.69 5.351 4.61 10.4 8.96 15.5 15.17l.891 1.12c1.54 1.97 3.52 4.08 5.619 6.32 1.671 1.79 3.41 3.65 4.99 5.51 3 3.54 5.141 5.721 9.141 8.511 1.489 1.01 3.029 2.079 4.529 3.119 4.73 3.28 9.62 6.67 14.181 9.24.8.49 1.14.9 1.5 1.33.069.09.14.17.22.26.399.5.82 1.09 1.33 1.87.83 1.26 1.8 2.87 2.95 4.91 2.01 3.56 3.899 7.21 4.56 8.68 1.1 2.471 2.21 4.851 3.39 7.28a3.013 3.013 0 0 1-1.38 4.01c-.42.2-.859.301-1.319.301-1.15 0-2.19-.65-2.69-1.69-1.24-2.521-2.37-4.96-3.479-7.46-.681-1.55-4.181-8.23-6.58-12.021-.71-1.14-1.4-2.069-1.65-2.35-4.8-2.74-9.65-6.1-14.34-9.35-1.601-1.11-3.101-2.15-4.59-3.16l-.021-.021c-4.5-3.109-7.29-5.97-10.33-9.59-1.41-1.66-2.979-3.34-4.64-5.109-2.11-2.26-4.29-4.581-6.09-6.871l-.851-1.07c-4.72-5.75-9.399-9.78-14.81-14.44-.771-.66-1.55-1.34-2.35-2.03-3.61 2.79-6.94 4.73-9.881 6.44-1.189.69-2.319 1.34-3.409 2.02-4.12 2.57-7.44 5.13-11.2 9.95.649.01 1.29.23 1.81.64.87.68 1.71 1.34 2.521 1.97 8.75 6.82 13.569 10.58 20.85 20.71 5.32 7.391 9.73 11.83 15.32 17.45 1.97 1.99 4.01 4.04 6.279 6.42 2.75 2.88 5.221 5.87 7.78 9.38 2.271.33 4.48.561 6.75.69.92.06 9.49.1 21.32.1h.84c5.79 0 11.43 0 16.771-.01h.01c1.649.01 2.99 1.35 2.99 2.99.01 1.66-1.341 3-2.99 3.01-5.033.009-10.363.009-16.783.009zm-94.83-45.491c.74 1.07 1.57 2.351 2.521 3.94 2.729-5.97 4.06-10.18 5.43-17.15-.87 1.15-1.63 2.12-2.311 2.98-.84 1.06-1.55 1.97-2.159 2.85-1.241 1.791-2.262 3.661-3.481 7.38zM288.99 265.16c-.591 0-1.171-.17-1.66-.5-3.62-2.391-7.221-4.891-10.71-7.311-2.09-1.44-4.061-2.81-6.011-4.14a67.41 67.41 0 0 1-6.47-5.05 2.991 2.991 0 0 1-.15-4.36c2.04-2.07 4.29-4.12 7.069-6.45l.021-.02c.489-.4.97-.8 1.46-1.2 3.39-2.81 6.6-5.46 9.81-8.31 1-.89 2.57-1 3.681-.24 3.6 2.45 7.859 5.33 12.109 8.14 1.12.74 1.61 2.1 1.22 3.38-.31 1.01-.699 2.36-1.159 3.92-1.511 5.16-3.79 12.96-6.391 20.16-.31.87-1 1.54-1.88 1.83-.299.1-.619.151-.939.151zm-18.39-19.41c1.09.86 2.2 1.68 3.4 2.51 1.99 1.35 4.06 2.79 6.069 4.18 2.41 1.67 4.891 3.4 7.36 5.07 2.01-5.94 3.76-11.91 5.04-16.27.18-.62.35-1.2.51-1.74a1676.8 1676.8 0 0 1-8.399-5.65c-2.73 2.36-5.511 4.66-8.2 6.89-.48.4-.97.8-1.45 1.2h-.01c-1.62 1.36-3.03 2.61-4.32 3.81zM156.94 331.45a3 3 0 0 1-3-2.87c-.03-.811.25-1.57.8-2.16l22.14-24.04-3.31-11.96c-.24-.851-.09-1.76.41-2.49l10.88-15.97c.13-1.13.38-3.46.64-6.391.32-3.75.71-9.209.71-13.879 0-2.31-.1-4.29-.28-5.73v-.01c-.04-.3-.06-.61-.06-.93.12-3.95 2.77-6.7 5.24-8.98 2.45-2.16 5.67-4.38 9.85-6.78 6.39-3.65 12.68-6.34 13.88-6.84l.04-.02c.37-.15.75-.22 1.15-.22 1.21 0 2.3.72 2.77 1.85.31.74.3 1.56 0 2.3-.31.74-.89 1.31-1.63 1.62-.01 0-.02.01-.05.02-.87.37-1.77.77-2.37 1.04a133.6 133.6 0 0 0-5.96 2.85c-3.43 1.74-9.78 5.17-13.69 8.67-2.37 2.02-3.35 3.96-3.24 4.48 0 .06.01.1.01.12v.02c.23 1.76.34 3.89.34 6.54 0 8.629-1.22 19.51-1.46 21.61-.01.06-.01.09-.01.09-.06.47-.24.95-.5 1.34l-10.52 15.431 3.39 12.229c.27.99.01 2.07-.69 2.83l-23.27 25.271c-.57.609-1.37.959-2.21.959zM36.02 328.189c-5.78 0-10.07-.819-10.6-.92h-.01a3.02 3.02 0 0 1-2.35-3.54c.33-1.59 1.94-2.67 3.54-2.34.01 0 .03 0 .07.01.09.021.28.051.59.101.64.109 1.3.2 1.97.28 1.55.189 3.99.42 6.79.42 3.7 0 7.1-.391 10.1-1.141 1.59-.39 3.25.61 3.64 2.19.4 1.6-.58 3.24-2.19 3.64-3.49.861-7.37 1.3-11.55 1.3zM485.99 314.609l-20.07-.06c-.8 0-1.561-.31-2.12-.88-.57-.57-.88-1.32-.87-2.12 0-1.65 1.34-2.99 2.99-2.99h.01l20.07.05c.81 0 1.56.32 2.12.881.569.569.88 1.329.87 2.13a2.994 2.994 0 0 1-3 2.989zM401.09 179.51a3 3 0 0 1-2.99-3v-10.66a3 3 0 0 1 2.99-3 3.01 3.01 0 0 1 3.01 3v10.66c0 1.65-1.35 3-3.01 3zM431.979 197.34a2.997 2.997 0 0 1-2.6-1.5c-.4-.69-.51-1.5-.3-2.27.21-.78.71-1.42 1.399-1.83l9.261-5.32c.449-.26.97-.4 1.489-.4 1.07 0 2.07.58 2.601 1.5.399.7.51 1.51.3 2.28s-.71 1.42-1.4 1.82l-9.25 5.32c-.459.27-.979.4-1.5.4zM441.229 238.35c-.52 0-1.04-.14-1.489-.4l-9.261-5.33a2.988 2.988 0 0 1-1.399-1.82c-.21-.77-.101-1.58.3-2.27.53-.93 1.53-1.51 2.6-1.51.53 0 1.04.14 1.5.4l9.25 5.33a3.004 3.004 0 0 1 1.101 4.1 3.019 3.019 0 0 1-2.602 1.5zM418.1 185.72c-.52 0-1.04-.14-1.5-.41a3.002 3.002 0 0 1-1.09-4.1l3.26-5.63c.53-.93 1.53-1.51 2.601-1.51.52 0 1.04.14 1.5.41 1.43.83 1.92 2.67 1.09 4.1l-3.26 5.64a3.018 3.018 0 0 1-2.601 1.5zM441.64 215.18h-6.53c-1.649 0-3-1.34-3-3 0-1.65 1.351-3 3-3h6.53c1.65 0 3 1.35 3 3 0 1.66-1.35 3-3 3zM384.09 185.72c-1.07 0-2.07-.58-2.61-1.51l-3.239-5.64c-.4-.69-.511-1.5-.301-2.27.21-.78.71-1.42 1.4-1.82.46-.27.97-.4 1.5-.4 1.07 0 2.06.57 2.6 1.5l3.25 5.64c.82 1.43.32 3.27-1.109 4.1-.461.26-.972.4-1.491.4zM405.79 239.14c-.67 0-1.34-.23-1.87-.65-3.69-2.94-6.811-6.04-10.76-10.71-2-2.37-4.33-4.86-6.591-7.27-2.979-3.17-6.06-6.46-8.569-9.66l-1.16-1.45c-.521-.63-1.03-1.25-1.53-1.84a2.965 2.965 0 0 1-.6-2.74c1.56-5.65 5-10.75 9.67-14.35 4.83-3.72 10.6-5.68 16.72-5.69 7.32.01 14.2 2.86 19.37 8.03 5.18 5.18 8.021 12.06 8.021 19.37 0 13.09-9.311 24.4-22.12 26.91a3.82 3.82 0 0 1-.581.05zm-24.84-34.18 1.779 2.19c2.221 2.86 5.051 5.88 8.051 9.08 2.35 2.51 4.779 5.1 6.97 7.67 3.39 4.02 5.859 6.54 8.8 8.99 9.4-2.47 15.95-10.98 15.94-20.71-.021-11.78-9.62-21.37-21.391-21.4h-.02c-9.01 0-17.089 5.7-20.129 14.18zM99.68 214.15h-30.6c-3.96-.01-7.18-3.23-7.19-7.18.01-3.95 3.23-7.18 7.19-7.19h15.97c.85-3.1 3.7-5.28 6.93-5.28h9.1a7.231 7.231 0 0 1 6.53-4.19h30.63c3.95.01 7.17 3.23 7.18 7.19 0 .36-.03.72-.08 1.07h10.07c3.96.01 7.18 3.23 7.19 7.18-.01 3.96-3.23 7.18-7.19 7.18h-30.63a7.128 7.128 0 0 1-6.45-4.07h-11.72a7.195 7.195 0 0 1-6.93 5.29zm-30.6-8.37c-.65.01-1.19.55-1.19 1.19s.54 1.18 1.19 1.18h30.6c.64 0 1.19-.54 1.19-1.18 0-.11-.02-.22-.05-.35-.24-.91-.05-1.85.53-2.59.57-.74 1.44-1.17 2.37-1.17h16.9c1.64 0 2.96 1.29 3 2.93 0 .59.56 1.15 1.14 1.15h30.65c.65-.01 1.19-.55 1.19-1.19 0-.64-.54-1.18-1.19-1.18H139.2c-1.52 0-2.81-1.14-2.98-2.65-.18-1.51.8-2.91 2.27-3.27.54-.12.94-.63.93-1.15 0-.64-.54-1.19-1.18-1.19h-30.63c-.64 0-1.18.55-1.19 1.19 0 .79-.32 1.56-.87 2.12-.56.56-1.34.88-2.12.88H91.98a1.195 1.195 0 0 0-1.13 1.53c.23.91.04 1.85-.53 2.59a2.98 2.98 0 0 1-2.38 1.16H69.08zM273.67 173.11h-30.61c-3.95-.01-7.17-3.23-7.18-7.18.01-3.95 3.23-7.18 7.18-7.18h15.98a7.203 7.203 0 0 1 6.93-5.3h9.11a7.242 7.242 0 0 1 6.54-4.18h30.609c3.95.01 7.17 3.23 7.181 7.19 0 .35-.03.71-.08 1.07h10.069c3.96.01 7.181 3.23 7.19 7.18-.01 3.95-3.23 7.18-7.19 7.18H298.79c-2.75 0-5.29-1.6-6.471-4.07H280.6a7.207 7.207 0 0 1-6.93 5.29zm-30.61-8.37c-.64 0-1.18.55-1.18 1.19 0 .64.54 1.18 1.18 1.18h30.61c.64 0 1.18-.54 1.189-1.18 0-.18-.01-.21-.01-.22a3 3 0 0 1 .44-2.67 3.04 3.04 0 0 1 2.42-1.22h16.899c1.62 0 2.96 1.32 3 2.93 0 .6.561 1.14 1.16 1.14h30.63c.631 0 1.19-.55 1.19-1.18 0-.64-.55-1.18-1.19-1.18h-16.21a3.003 3.003 0 0 1-.699-5.92c.52-.12.93-.63.92-1.15 0-.65-.54-1.19-1.181-1.19H281.62c-.641 0-1.2.56-1.21 1.19 0 .8-.311 1.55-.87 2.12-.57.56-1.32.87-2.12.87h-11.45c-.64.01-1.18.55-1.18 1.19 0 .11.01.22.05.34.229.91.04 1.86-.53 2.6a2.972 2.972 0 0 1-2.37 1.16h-18.88zM369.649 336.54h-38a3.01 3.01 0 0 1-3-3c0-1.65 1.351-3 3-3h38c1.66 0 3 1.35 3 3 0 1.649-1.339 3-3 3zM297.34 362.729H201.5c-1.65 0-3-1.35-3-3 0-1.66 1.35-3 3-3h95.84c1.65 0 2.99 1.34 2.99 3a3 3 0 0 1-2.99 3zM315.899 345.81h-55.97c-1.66 0-3-1.35-3-3 0-1.649 1.34-3 3-3h55.97c1.65 0 3 1.351 3 3 0 1.65-1.349 3-3 3zM178.43 345.81h-68.06c-1.65 0-3-1.35-3-3 0-1.649 1.35-3 3-3h68.06c1.66 0 3 1.351 3 3 0 1.65-1.34 3-3 3zM450.45 332.25h-38c-1.66 0-3-1.351-3-3 0-1.66 1.34-3 3-3h38c1.649 0 3 1.34 3 3 0 1.649-1.35 3-3 3z"/></svg>