<?xml version="1.0" encoding="UTF-8"?><svg xmlns="http://www.w3.org/2000/svg" xmlns:xlink="http://www.w3.org/1999/xlink" contentScriptType="text/ecmascript" width="749.25pt" zoomAndPan="magnify" contentStyleType="text/css" viewBox="0 0 749.25 749.249995" height="749.249995pt" preserveAspectRatio="xMidYMid meet" version="1.2"><defs><clipPath xml:id="clip1" id="clip1"><path d="M 0 0 L 748.5 0 L 748.5 748.5 L 0 748.5 Z M 0 0 "/></clipPath><clipPath xml:id="clip2" id="clip2"><path d="M 42 227 L 700 227 L 700 523.605469 L 42 523.605469 Z M 42 227 "/></clipPath></defs><g xml:id="surface1" id="surface1"><g clip-rule="nonzero" clip-path="url(#clip1)"><path style=" stroke:none;fill-rule:nonzero;fill:rgb(100%,100%,100%);fill-opacity:1;" d="M 0 0 L 749.25 0 L 749.25 756.742188 L 0 756.742188 Z M 0 0 "/><path style=" stroke:none;fill-rule:nonzero;fill:rgb(100%,100%,100%);fill-opacity:1;" d="M 0 0 L 748.5 0 L 748.5 748.5 L 0 748.5 Z M 0 0 "/><path style=" stroke:none;fill-rule:nonzero;fill:rgb(100%,100%,100%);fill-opacity:1;" d="M 0 0 L 748.5 0 L 748.5 748.5 L 0 748.5 Z M 0 0 "/></g><path style=" stroke:none;fill-rule:nonzero;fill:rgb(0%,0%,0%);fill-opacity:1;" d="M 224.964844 484.625 C 215.59375 484.625 207.460938 482.777344 199.613281 480.988281 L 198.796875 480.804688 C 191.382812 479.113281 182.957031 477.210938 173.191406 477.195312 C 172.878906 477.195312 172.585938 477.210938 172.316406 477.210938 L 172.246094 477.210938 C 169.765625 477.238281 167.34375 477.28125 164.792969 477.335938 L 164.523438 477.335938 C 163.03125 477.367188 161.832031 477.421875 160.859375 477.476562 C 160.058594 477.519531 159.351562 477.550781 158.734375 477.550781 C 158.367188 477.550781 158.015625 477.550781 157.507812 477.476562 C 157.421875 477.449219 157.335938 477.4375 157.253906 477.421875 C 156.761719 477.335938 156.082031 477.210938 155.027344 476.378906 C 154.140625 475.703125 153.449219 474.179688 153.503906 473.050781 C 153.589844 471.53125 154.039062 470.882812 154.335938 470.445312 C 154.40625 470.359375 154.449219 470.289062 154.492188 470.21875 C 154.800781 469.808594 155.054688 469.554688 155.292969 469.316406 L 155.335938 469.273438 C 155.71875 468.90625 156.113281 468.554688 156.578125 468.144531 C 156.71875 468.003906 156.886719 467.863281 157.054688 467.707031 C 158.535156 466.367188 160.351562 464.679688 162.566406 462.238281 C 172.515625 451.296875 177.503906 445.984375 183.492188 441.175781 C 185.253906 439.765625 188.015625 440.0625 189.4375 441.824219 C 190.144531 442.714844 190.453125 443.8125 190.339844 444.941406 C 190.214844 446.054688 189.664062 447.070312 188.777344 447.773438 C 183.28125 452.1875 178.234375 457.558594 168.824219 467.933594 C 168.539062 468.230469 168.273438 468.527344 168.003906 468.808594 C 169.613281 468.777344 170.9375 468.765625 172.160156 468.753906 L 173.203125 468.753906 C 183.84375 468.753906 192.792969 470.769531 200.667969 472.558594 L 200.894531 472.613281 C 208.925781 474.449219 216.507812 476.167969 224.949219 476.167969 L 224.964844 476.167969 C 227.910156 476.167969 230.785156 475.96875 233.742188 475.546875 C 242.605469 474.320312 251.425781 472.164062 260.769531 469.894531 C 267.941406 468.148438 275.355469 466.339844 282.910156 464.945312 L 284.8125 464.609375 C 292.207031 463.324219 298.605469 462.691406 304.355469 462.691406 L 304.414062 462.691406 C 313.023438 462.691406 319.589844 464.171875 325.378906 465.480469 L 325.746094 465.566406 C 331.933594 466.960938 338.34375 468.402344 347.886719 468.992188 C 348.519531 469.050781 352.984375 469.09375 358.722656 469.105469 C 364.132812 469.132812 371.628906 469.148438 382.3125 469.148438 C 399.757812 469.148438 420.878906 469.105469 439.496094 469.078125 C 449.976562 469.0625 459.53125 469.046875 466.972656 469.046875 C 459.601562 455.5 453.320312 443.40625 446.667969 428.417969 C 445.171875 425.039062 437.816406 411.007812 432.957031 403.453125 C 431.546875 401.183594 430.125 399.394531 429.757812 399.027344 C 420.046875 393.515625 410.171875 386.675781 400.628906 380.050781 C 397.585938 377.949219 394.726562 375.964844 391.863281 374.015625 L 391.835938 373.988281 C 383.085938 367.925781 377.589844 362.300781 371.570312 355.167969 C 368.738281 351.8125 365.457031 348.316406 362.285156 344.921875 C 358.101562 340.453125 353.773438 335.839844 350.25 331.332031 L 348.546875 329.246094 C 338.949219 317.515625 329.507812 309.382812 318.574219 299.949219 C 316.769531 298.386719 314.894531 296.777344 312.992188 295.128906 C 305.453125 301.089844 298.519531 305.125 292.390625 308.703125 C 289.980469 310.101562 287.726562 311.410156 285.5 312.792969 C 275.945312 318.726562 268.238281 324.957031 259.316406 337.644531 C 256.175781 342.113281 253.609375 345.34375 251.355469 348.207031 C 249.609375 350.417969 248.085938 352.335938 246.777344 354.253906 C 243.945312 358.398438 241.589844 362.980469 238.617188 372.933594 C 238.066406 374.808594 237.503906 376.753906 236.96875 378.628906 C 236.320312 380.867188 235.65625 383.195312 234.980469 385.492188 C 234.714844 386.367188 234.429688 387.339844 234.121094 388.382812 C 232.671875 393.390625 230.667969 400.253906 228.203125 407.046875 C 228.113281 407.316406 228 407.570312 227.859375 407.816406 C 227.71875 408.0625 227.554688 408.289062 227.367188 408.503906 C 227.183594 408.714844 226.976562 408.90625 226.753906 409.078125 C 226.527344 409.25 226.289062 409.394531 226.035156 409.519531 C 225.78125 409.640625 225.515625 409.738281 225.246094 409.808594 C 224.972656 409.878906 224.691406 409.921875 224.410156 409.9375 C 224.128906 409.953125 223.847656 409.9375 223.570312 409.898438 C 223.289062 409.855469 223.019531 409.785156 222.753906 409.691406 C 222.488281 409.59375 222.234375 409.472656 221.992188 409.324219 C 221.753906 409.179688 221.527344 409.007812 221.320312 408.816406 C 221.113281 408.625 220.925781 408.414062 220.761719 408.1875 C 220.597656 407.957031 220.457031 407.714844 220.339844 407.457031 C 220.222656 407.199219 220.132812 406.933594 220.070312 406.660156 C 220.007812 406.382812 219.972656 406.105469 219.964844 405.824219 C 219.957031 405.539062 219.980469 405.261719 220.027344 404.980469 C 220.078125 404.703125 220.152344 404.433594 220.253906 404.171875 C 222.621094 397.644531 224.59375 390.875 226.03125 385.929688 C 226.328125 384.914062 226.609375 383.957031 226.878906 383.082031 C 227.527344 380.882812 228.175781 378.613281 228.792969 376.425781 C 229.359375 374.496094 229.921875 372.492188 230.5 370.535156 C 233.304688 361.101562 235.996094 355 239.816406 349.457031 C 241.40625 347.160156 243.011719 345.117188 244.886719 342.75 C 247.042969 340.027344 249.480469 336.941406 252.382812 332.78125 C 262.671875 318.0625 272.238281 311.015625 281.046875 305.601562 C 283.441406 304.121094 285.851562 302.710938 288.207031 301.34375 C 295.152344 297.296875 302.324219 293.109375 310.371094 286.34375 C 311.921875 285.046875 314.359375 285.074219 315.882812 286.414062 C 318.714844 288.910156 321.476562 291.292969 324.167969 293.605469 C 334.863281 302.824219 344.980469 311.535156 355.085938 323.886719 L 356.859375 326.058594 C 360.003906 330.101562 364.003906 334.375 368.230469 338.898438 C 371.527344 342.425781 374.9375 346.074219 378.027344 349.699219 C 384.015625 356.761719 388.539062 361.386719 396.613281 367.011719 C 396.613281 367.011719 396.613281 367.023438 396.625 367.023438 C 399.472656 368.957031 402.445312 371.011719 405.308594 373 C 414.875 379.628906 424.753906 386.476562 434.097656 391.75 C 435.378906 392.539062 435.984375 393.273438 436.703125 394.132812 C 436.800781 394.246094 436.902344 394.355469 437 394.484375 C 437.761719 395.445312 438.59375 396.628906 439.5625 398.09375 C 441.183594 400.589844 443.144531 403.847656 445.371094 407.792969 C 449.371094 414.882812 453.089844 422.089844 454.386719 424.964844 C 462.195312 442.558594 469.605469 456.316406 477.808594 471.230469 C 478.527344 472.527344 478.496094 474.136719 477.738281 475.417969 C 477.355469 476.058594 476.839844 476.566406 476.191406 476.933594 C 475.542969 477.304688 474.847656 477.492188 474.101562 477.492188 C 466.367188 477.492188 454.078125 477.519531 439.859375 477.535156 C 421.117188 477.5625 399.878906 477.589844 382.308594 477.589844 C 371.980469 477.589844 364.257812 477.589844 358.691406 477.5625 C 352.644531 477.53125 348.65625 477.503906 347.375 477.433594 C 337.199219 476.816406 330.125 475.222656 323.898438 473.8125 L 323.519531 473.726562 C 317.628906 472.414062 312.0625 471.160156 304.351562 471.148438 C 299.097656 471.148438 293.179688 471.738281 286.273438 472.9375 L 284.398438 473.277344 C 277.3125 474.558594 270.097656 476.320312 263.136719 478.027344 C 253.945312 480.269531 244.449219 482.578125 234.910156 483.933594 C 231.609375 484.386719 228.292969 484.621094 224.964844 484.625 Z M 209.757812 433.464844 C 208.277344 433.464844 206.882812 432.675781 206.121094 431.394531 C 205.546875 430.417969 205.375 429.292969 205.65625 428.191406 C 205.945312 427.070312 206.582031 426.207031 207.574219 425.609375 L 207.589844 425.597656 C 208.25 425.203125 208.996094 425.003906 209.757812 425.003906 C 211.238281 425.003906 212.632812 425.796875 213.394531 427.0625 C 214.578125 429.066406 213.929688 431.675781 211.914062 432.871094 L 211.902344 432.871094 C 211.253906 433.253906 210.503906 433.464844 209.757812 433.464844 Z M 209.757812 433.464844 "/><path style=" stroke:none;fill-rule:nonzero;fill:rgb(0%,0%,0%);fill-opacity:1;" d="M 108.707031 478.222656 C 108.296875 478.222656 107.898438 478.164062 107.503906 478.046875 C 107.113281 477.929688 106.746094 477.757812 106.402344 477.535156 C 106.058594 477.3125 105.757812 477.042969 105.492188 476.730469 C 105.226562 476.417969 105.011719 476.074219 104.847656 475.699219 C 104.675781 475.316406 104.5625 474.917969 104.511719 474.5 C 104.457031 474.085938 104.46875 473.667969 104.542969 473.257812 C 104.613281 472.84375 104.746094 472.449219 104.9375 472.074219 C 105.128906 471.699219 105.371094 471.363281 105.664062 471.0625 C 111.609375 464.902344 117.007812 458.671875 122.234375 452.664062 C 129.632812 444.136719 137.285156 435.3125 146.683594 426.429688 C 158.875 414.953125 166.128906 406.917969 175.445312 394.585938 C 183.011719 384.378906 188.820312 377.554688 199.527344 368.617188 C 200.261719 368.011719 200.980469 367.40625 201.699219 366.8125 C 206.445312 362.894531 210.929688 359.1875 215.421875 355.210938 C 216.832031 353.96875 219.046875 353.828125 220.59375 354.886719 C 226.019531 358.578125 231.839844 362.511719 237.660156 366.332031 C 239.210938 367.363281 239.929688 369.320312 239.378906 371.113281 C 238.914062 372.621094 238.324219 374.652344 237.632812 377.003906 C 234.304688 388.382812 228.726562 407.425781 222.636719 419.902344 C 220.1875 424.738281 217.859375 428.96875 214.097656 431.550781 C 209.941406 434.253906 206.320312 436.355469 203.121094 438.203125 C 201.105469 439.375 199.203125 440.472656 197.371094 441.613281 C 192.539062 444.601562 188.15625 447.773438 182.421875 453.5 C 178.660156 457.261719 174.894531 461.351562 171.261719 465.3125 C 170.078125 466.59375 168.894531 467.890625 167.710938 469.160156 C 164.804688 472.304688 162.917969 474.320312 160.734375 475.816406 C 158.789062 477.195312 156.113281 477.960938 153.53125 477.886719 C 152.40625 477.886719 151.277344 477.816406 149.980469 477.734375 C 148.136719 477.621094 146.035156 477.492188 143.148438 477.492188 L 142.132812 477.492188 C 133.480469 477.492188 125.152344 477.746094 116.332031 478.015625 C 113.835938 478.085938 111.34375 478.15625 108.820312 478.226562 Z M 218.550781 363.710938 C 214.703125 367.039062 210.773438 370.28125 206.984375 373.425781 C 206.304688 373.988281 205.617188 374.550781 204.9375 375.117188 C 194.792969 383.628906 189.71875 389.566406 182.222656 399.644531 L 182.210938 399.660156 C 172.683594 412.289062 164.90625 420.917969 152.488281 432.589844 C 143.542969 441.019531 136.382812 449.265625 128.800781 457.996094 C 125.5625 461.730469 122.207031 465.605469 118.699219 469.46875 C 126.546875 469.246094 134.242188 469.03125 142.132812 469.03125 L 143.121094 469.03125 C 146.402344 469.046875 148.9375 469.203125 150.785156 469.3125 C 151.898438 469.371094 152.773438 469.425781 153.433594 469.425781 L 153.53125 469.425781 C 155.039062 469.371094 155.039062 469.371094 155.929688 468.847656 L 156 468.808594 C 156.972656 468.171875 158.773438 466.410156 161.496094 463.433594 L 164.988281 459.644531 C 168.679688 455.625 172.5 451.46875 176.433594 447.519531 C 183.140625 440.792969 188.535156 437.113281 192.917969 434.40625 C 194.949219 433.167969 196.921875 432.027344 199.007812 430.8125 C 202.246094 428.9375 205.601562 426.992188 209.476562 424.46875 C 210.378906 424.019531 212.859375 420.804688 215.042969 416.179688 C 217.085938 412.007812 219.3125 406.453125 221.679688 399.65625 C 224.851562 390.578125 227.585938 381.203125 229.601562 374.367188 C 229.882812 373.410156 230.136719 372.507812 230.390625 371.660156 C 226.421875 369.039062 222.476562 366.390625 218.550781 363.710938 Z M 218.550781 363.710938 "/><path style=" stroke:none;fill-rule:nonzero;fill:rgb(0%,0%,0%);fill-opacity:1;" d="M 98.421875 478.507812 C 92.066406 478.507812 85.386719 478.28125 79.480469 478.082031 C 78.4375 478.054688 77.394531 478.027344 76.394531 477.984375 C 75.972656 477.972656 75.558594 477.902344 75.160156 477.765625 C 74.757812 477.628906 74.386719 477.4375 74.042969 477.1875 C 73.703125 476.9375 73.402344 476.644531 73.152344 476.304688 C 72.898438 475.964844 72.703125 475.59375 72.5625 475.195312 C 71.957031 473.558594 72.421875 471.753906 73.730469 470.597656 C 89.738281 456.375 94.882812 450.890625 108.117188 433.886719 C 118.996094 419.847656 126.421875 412.96875 139.667969 401.632812 C 140.527344 400.886719 141.652344 400.519531 142.78125 400.617188 C 143.894531 400.714844 144.949219 401.265625 145.667969 402.140625 C 145.992188 402.519531 146.910156 403.550781 148.066406 404.859375 C 148.785156 405.652344 149.585938 406.566406 150.433594 407.527344 C 152.53125 409.894531 155.179688 412.953125 157.238281 415.535156 L 157.464844 415.832031 C 158.691406 417.421875 159.59375 418.5625 160.296875 420.074219 L 160.382812 420.285156 C 160.566406 420.722656 160.777344 421.230469 160.804688 422.285156 C 160.804688 422.398438 160.804688 422.496094 160.789062 422.597656 C 160.734375 423.457031 160.4375 424.261719 159.917969 424.9375 L 157.984375 427.332031 C 142.511719 441.304688 134.734375 450.507812 121.855469 465.761719 C 121.671875 465.976562 121.390625 466.3125 121.039062 466.75 C 120.164062 467.808594 118.824219 469.414062 117.429688 471.035156 L 117.261719 471.234375 C 115.261719 473.492188 113.386719 475.632812 111.46875 477.054688 C 111.328125 477.140625 111.203125 477.226562 111.0625 477.324219 C 110.539062 477.691406 109.933594 478.097656 108.367188 478.269531 C 105.464844 478.421875 102.210938 478.507812 98.421875 478.507812 Z M 87.160156 469.863281 C 95.828125 470.105469 101.871094 470.105469 106.917969 469.878906 C 107.042969 469.765625 107.183594 469.625 107.328125 469.496094 C 108.242188 468.625 109.410156 467.339844 110.242188 466.410156 C 111.808594 464.632812 113.398438 462.71875 114.441406 461.449219 C 114.835938 460.96875 115.160156 460.574219 115.402344 460.304688 C 127.871094 445.515625 136.117188 435.746094 151.433594 421.847656 L 151.265625 421.625 C 150.292969 420.339844 148.855469 418.605469 146.996094 416.449219 C 145.316406 414.488281 143.613281 412.570312 142.007812 410.769531 C 130.746094 420.539062 124.460938 426.640625 114.796875 439.074219 C 103.492188 453.636719 97.53125 460.277344 87.160156 469.863281 Z M 474.101562 477.492188 C 472.550781 477.492188 471.144531 476.660156 470.394531 475.304688 C 469.664062 473.980469 468.945312 472.667969 468.226562 471.355469 C 461.210938 458.628906 454.574219 446.601562 448.484375 432.632812 L 448.484375 432.617188 C 445.636719 426.007812 442.902344 420.140625 438.789062 413.035156 C 438.429688 412.421875 438.242188 411.757812 438.21875 411.050781 C 438.195312 410.339844 438.34375 409.667969 438.660156 409.03125 C 445.085938 395.976562 447.527344 389.535156 450.230469 374.746094 C 450.496094 373.292969 451.511719 372.066406 452.894531 371.546875 C 454.246094 371.023438 455.855469 371.277344 457.007812 372.167969 C 458.191406 373.097656 459.320312 373.984375 460.417969 374.84375 C 472.820312 384.5 479.65625 389.828125 489.941406 404.152344 C 497.453125 414.574219 503.667969 420.84375 511.542969 428.769531 C 514.320312 431.558594 517.179688 434.449219 520.378906 437.789062 C 527.636719 445.417969 532.582031 452.605469 537.8125 460.234375 C 540.125 463.601562 542.53125 467.085938 545.125 470.59375 C 546.070312 471.878906 546.222656 473.625 545.492188 475.035156 C 545.128906 475.742188 544.613281 476.304688 543.933594 476.714844 C 543.257812 477.128906 542.523438 477.335938 541.726562 477.332031 L 541.671875 477.332031 C 535.992188 477.261719 530.046875 477.21875 523.496094 477.21875 C 514.433594 477.21875 505.230469 477.289062 496.339844 477.363281 C 489.070312 477.417969 481.558594 477.476562 474.101562 477.492188 Z M 456.25 429.277344 C 462.183594 442.878906 468.777344 454.851562 475.753906 467.511719 L 476.597656 469.03125 C 483.125 469.003906 489.730469 468.960938 496.117188 468.90625 C 505.078125 468.832031 514.339844 468.761719 523.496094 468.761719 C 527.035156 468.761719 530.289062 468.777344 533.460938 468.792969 C 532.527344 467.480469 531.628906 466.171875 530.753906 464.902344 C 525.707031 457.554688 520.933594 450.605469 514.265625 443.628906 C 511.195312 440.414062 508.347656 437.550781 505.601562 434.789062 C 497.78125 426.910156 491.015625 420.113281 483.082031 409.101562 C 473.828125 396.316406 468.441406 391.863281 457.210938 383.078125 C 455.082031 392.875 452.546875 399.882812 447.234375 410.765625 C 450.429688 416.464844 453.050781 421.835938 456.25 429.277344 Z M 456.25 429.277344 "/><path style=" stroke:none;fill-rule:nonzero;fill:rgb(0%,0%,0%);fill-opacity:1;" d="M 574.167969 460.601562 C 564.542969 460.601562 556.851562 460.589844 551.296875 460.574219 C 544.972656 460.542969 541.546875 460.519531 540.363281 460.449219 C 536.316406 460.207031 532.289062 459.769531 528.285156 459.136719 C 527.171875 458.953125 526.160156 458.316406 525.511719 457.402344 C 521.746094 452.128906 518.183594 447.757812 514.265625 443.628906 C 511.191406 440.414062 508.363281 437.566406 505.613281 434.804688 C 497.792969 426.921875 491.027344 420.113281 483.082031 409.101562 C 473.851562 396.359375 468.46875 391.890625 457.210938 383.078125 C 455.078125 392.878906 452.542969 399.882812 447.234375 410.769531 C 449.570312 414.910156 451.65625 419.042969 453.8125 423.765625 C 453.8125 423.765625 453.8125 423.78125 453.828125 423.78125 L 453.855469 423.835938 C 453.96875 424.085938 454.058594 424.347656 454.121094 424.617188 C 454.183594 424.882812 454.21875 425.15625 454.230469 425.433594 C 454.242188 425.707031 454.222656 425.980469 454.179688 426.253906 C 454.136719 426.527344 454.066406 426.792969 453.972656 427.050781 C 453.875 427.308594 453.757812 427.554688 453.613281 427.792969 C 453.46875 428.027344 453.304688 428.246094 453.117188 428.449219 C 452.933594 428.652344 452.726562 428.835938 452.503906 429 C 452.285156 429.160156 452.046875 429.300781 451.796875 429.417969 C 449.742188 430.378906 447.148438 429.433594 446.191406 427.417969 C 444.769531 424.429688 441.609375 418.339844 438.328125 412.503906 C 434.847656 406.257812 431.394531 400.789062 429.945312 399.222656 C 429.882812 399.148438 429.816406 399.078125 429.746094 399.011719 C 425.546875 396.640625 420.910156 393.78125 415.585938 390.257812 C 415.191406 390 414.847656 389.683594 414.5625 389.3125 C 414.273438 388.941406 414.054688 388.53125 413.902344 388.085938 C 413.75 387.640625 413.675781 387.179688 413.679688 386.710938 C 413.683594 386.238281 413.761719 385.78125 413.917969 385.335938 C 414.554688 383.488281 415.1875 381.589844 415.792969 379.683594 C 416.359375 377.921875 417.976562 376.738281 419.824219 376.738281 C 420.15625 376.738281 420.484375 376.777344 420.808594 376.855469 C 421.132812 376.933594 421.441406 377.046875 421.738281 377.195312 C 422.035156 377.347656 422.308594 377.53125 422.5625 377.746094 C 422.816406 377.960938 423.039062 378.203125 423.238281 378.472656 C 423.433594 378.738281 423.597656 379.027344 423.722656 379.335938 C 423.851562 379.640625 423.945312 379.957031 423.996094 380.289062 C 424.050781 380.617188 424.066406 380.945312 424.039062 381.277344 C 424.015625 381.609375 423.953125 381.933594 423.851562 382.25 C 423.574219 383.136719 423.277344 384.070312 422.964844 384.984375 C 427.09375 387.648438 430.730469 389.863281 434.085938 391.753906 C 435.3125 392.5 435.902344 393.191406 436.578125 393.992188 C 436.679688 394.09375 436.761719 394.191406 436.859375 394.304688 C 437.566406 395.191406 438.328125 396.234375 439.242188 397.617188 C 440.074219 398.859375 441.003906 400.339844 442.019531 402.015625 C 446.160156 392.921875 448.078125 386.539062 450.234375 374.753906 C 450.5 373.300781 451.515625 372.074219 452.898438 371.550781 C 454.265625 371.03125 455.871094 371.285156 457.011719 372.1875 C 458.238281 373.144531 459.421875 374.074219 460.550781 374.949219 C 472.894531 384.578125 479.683594 389.878906 489.945312 404.160156 C 497.441406 414.578125 503.65625 420.835938 511.53125 428.757812 C 514.308594 431.566406 517.183594 434.453125 520.378906 437.808594 C 524.242188 441.871094 527.738281 446.070312 531.34375 451.035156 C 534.515625 451.5 537.628906 451.824219 540.871094 452.007812 C 541.40625 452.046875 545.183594 452.089844 551.328125 452.117188 C 556.867188 452.148438 564.546875 452.148438 574.171875 452.148438 C 594.109375 452.148438 619.359375 452.105469 639.640625 452.0625 C 647.304688 452.046875 654.25 452.046875 659.960938 452.03125 C 652.519531 438.34375 646.207031 426.191406 639.640625 411.40625 C 638.1875 408.089844 630.875 394.121094 625.941406 386.46875 C 624.53125 384.183594 623.121094 382.40625 622.757812 382.039062 C 613.175781 376.597656 603.394531 369.832031 593.953125 363.289062 C 590.796875 361.105469 587.8125 359.035156 584.851562 357.03125 L 584.820312 357.003906 C 576.070312 350.941406 570.757812 345.5 564.558594 338.15625 C 561.726562 334.8125 558.441406 331.316406 555.273438 327.921875 C 551.085938 323.453125 546.761719 318.839844 543.222656 314.332031 L 543.207031 314.332031 L 541.53125 312.230469 C 531.964844 300.558594 522.550781 292.4375 511.671875 283.046875 C 509.824219 281.457031 507.921875 279.820312 505.992188 278.128906 C 498.453125 284.105469 491.507812 288.152344 485.363281 291.71875 C 482.984375 293.113281 480.710938 294.425781 478.5 295.804688 C 468.945312 301.726562 461.238281 307.945312 452.316406 320.617188 C 449.246094 325.015625 446.710938 328.214844 444.484375 331.035156 L 443.917969 331.742188 C 442.523438 333.515625 439.761719 333.839844 437.988281 332.445312 C 437.476562 332.042969 437.082031 331.546875 436.796875 330.960938 C 436.515625 330.375 436.378906 329.753906 436.378906 329.105469 C 436.378906 328.160156 436.691406 327.257812 437.296875 326.496094 L 437.832031 325.804688 C 440.003906 323.070312 442.453125 319.96875 445.398438 315.769531 C 455.671875 301.066406 465.238281 294.03125 474.046875 288.601562 C 476.425781 287.136719 478.835938 285.726562 481.179688 284.375 C 488.136719 280.3125 495.324219 276.125 503.386719 269.359375 C 504.9375 268.0625 507.375 268.089844 508.894531 269.429688 C 511.757812 271.953125 514.5625 274.363281 517.265625 276.703125 C 527.933594 285.894531 537.992188 294.578125 548.082031 306.886719 L 549.84375 309.070312 C 552.976562 313.105469 556.976562 317.363281 561.191406 321.871094 C 564.5 325.410156 567.925781 329.0625 570.996094 332.683594 C 577.042969 339.804688 581.582031 344.429688 589.582031 350.023438 L 589.597656 350.023438 C 592.558594 352.042969 595.644531 354.183594 598.628906 356.242188 C 608.085938 362.796875 617.867188 369.5625 627.054688 374.753906 C 628.351562 375.542969 628.957031 376.273438 629.675781 377.121094 C 629.773438 377.246094 629.871094 377.359375 629.96875 377.488281 C 630.730469 378.429688 631.546875 379.585938 632.550781 381.097656 C 634.183594 383.59375 636.140625 386.863281 638.367188 390.796875 C 642.398438 397.941406 646.105469 405.148438 647.359375 407.980469 C 655.039062 425.261719 662.523438 439.148438 670.792969 454.21875 C 671.5 455.515625 671.484375 457.125 670.722656 458.40625 C 669.960938 459.691406 668.566406 460.480469 667.085938 460.480469 C 660.578125 460.492188 650.769531 460.507812 639.425781 460.523438 C 619.207031 460.558594 594.050781 460.601562 574.167969 460.601562 Z M 427.785156 358.140625 C 427.359375 358.140625 426.953125 358.085938 426.558594 357.960938 C 425.472656 357.636719 424.585938 356.902344 424.050781 355.914062 C 423.515625 354.914062 423.402344 353.773438 423.742188 352.6875 C 423.871094 352.25 424.066406 351.847656 424.324219 351.476562 C 424.585938 351.105469 424.898438 350.785156 425.261719 350.511719 C 425.625 350.242188 426.023438 350.035156 426.457031 349.894531 C 426.886719 349.753906 427.328125 349.683594 427.785156 349.683594 C 428.113281 349.683594 428.4375 349.722656 428.757812 349.800781 C 429.078125 349.878906 429.386719 349.988281 429.679688 350.140625 C 429.976562 350.289062 430.25 350.46875 430.5 350.679688 C 430.753906 350.894531 430.976562 351.132812 431.171875 351.398438 C 431.371094 351.660156 431.53125 351.945312 431.664062 352.25 C 431.792969 352.550781 431.886719 352.867188 431.945312 353.191406 C 432 353.515625 432.019531 353.84375 432 354.171875 C 431.980469 354.5 431.921875 354.824219 431.828125 355.140625 C 431.695312 355.574219 431.5 355.976562 431.238281 356.34375 C 430.976562 356.714844 430.664062 357.035156 430.300781 357.304688 C 429.933594 357.578125 429.539062 357.785156 429.109375 357.925781 C 428.679688 358.070312 428.238281 358.140625 427.785156 358.140625 Z M 427.785156 358.140625 "/><g clip-rule="nonzero" clip-path="url(#clip2)"><path style=" stroke:none;fill-rule:nonzero;fill:rgb(0%,0%,0%);fill-opacity:1;" d="M 572.082031 460.601562 C 552.042969 460.601562 542.265625 460.546875 540.363281 460.449219 C 536.316406 460.207031 532.289062 459.769531 528.285156 459.136719 C 527.171875 458.953125 526.160156 458.320312 525.511719 457.402344 C 521.761719 452.144531 518.183594 447.761719 514.265625 443.628906 C 511.191406 440.414062 508.347656 437.554688 505.601562 434.789062 C 497.777344 426.910156 491.015625 420.113281 483.082031 409.101562 C 473.867188 396.359375 468.46875 391.890625 457.210938 383.078125 C 455.082031 392.878906 452.546875 399.882812 447.234375 410.769531 C 449.402344 414.601562 451.375 418.480469 453.445312 422.992188 C 453.714844 423.554688 453.839844 424.148438 453.839844 424.765625 L 453.839844 424.796875 C 453.839844 426.769531 452.503906 428.460938 450.574219 428.914062 C 448.683594 429.351562 446.65625 428.378906 445.824219 426.644531 C 444.359375 423.65625 441.511719 418.183594 438.441406 412.730469 C 435.199219 406.90625 432.128906 401.988281 430.449219 399.871094 C 429.605469 398.785156 429.324219 397.347656 429.730469 396.023438 C 431.675781 389.582031 433.664062 385.171875 436.410156 381.25 C 437.539062 379.632812 438.691406 378.148438 439.933594 376.597656 C 441.441406 374.679688 443.160156 372.511719 445.1875 369.59375 C 452.601562 358.992188 459.761719 353.761719 465.804688 350.054688 C 467.496094 349.011719 469.214844 348.023438 470.863281 347.066406 C 475.726562 344.21875 480.769531 341.285156 486.363281 336.578125 C 487.917969 335.265625 490.367188 335.292969 491.890625 336.648438 C 493.917969 338.4375 495.933594 340.171875 497.878906 341.847656 C 505.417969 348.347656 512.535156 354.480469 519.71875 363.234375 L 520.976562 364.8125 C 523.144531 367.589844 525.9375 370.566406 528.894531 373.722656 C 531.25 376.246094 533.699219 378.867188 535.925781 381.492188 C 540.152344 386.480469 543.167969 389.554688 548.804688 393.488281 C 550.90625 394.914062 553.074219 396.417969 555.1875 397.886719 C 561.855469 402.511719 568.746094 407.289062 575.171875 410.910156 C 576.300781 411.601562 576.777344 412.179688 577.285156 412.785156 C 577.382812 412.914062 577.484375 413.027344 577.597656 413.152344 C 578.15625 413.859375 578.75 414.691406 579.46875 415.789062 C 580.640625 417.566406 582.007812 419.835938 583.628906 422.710938 C 586.460938 427.730469 589.121094 432.875 590.054688 434.949219 C 591.601562 438.429688 593.167969 441.785156 594.828125 445.210938 C 594.949219 445.460938 595.046875 445.71875 595.113281 445.988281 C 595.183594 446.257812 595.226562 446.527344 595.242188 446.804688 C 595.261719 447.082031 595.25 447.359375 595.210938 447.632812 C 595.175781 447.90625 595.109375 448.175781 595.019531 448.4375 C 594.929688 448.699219 594.816406 448.949219 594.675781 449.191406 C 594.535156 449.429688 594.375 449.652344 594.191406 449.863281 C 594.007812 450.070312 593.808594 450.257812 593.585938 450.425781 C 593.367188 450.59375 593.132812 450.742188 592.886719 450.863281 C 592.292969 451.144531 591.675781 451.289062 591.027344 451.289062 C 589.40625 451.289062 587.941406 450.371094 587.234375 448.90625 C 585.488281 445.351562 583.894531 441.914062 582.332031 438.390625 C 581.375 436.203125 576.441406 426.785156 573.0625 421.441406 C 572.0625 419.835938 571.089844 418.527344 570.734375 418.128906 C 563.972656 414.265625 557.136719 409.53125 550.527344 404.949219 C 548.273438 403.382812 546.160156 401.917969 544.058594 400.492188 L 544.03125 400.464844 C 537.691406 396.082031 533.757812 392.046875 529.472656 386.945312 C 527.488281 384.605469 525.277344 382.238281 522.9375 379.742188 C 519.960938 376.554688 516.890625 373.285156 514.355469 370.054688 L 513.15625 368.546875 C 506.503906 360.441406 499.910156 354.761719 492.285156 348.191406 C 491.199219 347.261719 490.101562 346.300781 488.972656 345.328125 C 483.886719 349.261719 479.195312 351.996094 475.050781 354.40625 C 473.375 355.378906 471.78125 356.296875 470.246094 357.253906 C 464.441406 360.878906 459.761719 364.488281 454.460938 371.28125 C 455.378906 371.296875 456.28125 371.605469 457.011719 372.183594 C 458.238281 373.144531 459.421875 374.074219 460.566406 374.960938 C 472.894531 384.578125 479.6875 389.878906 489.945312 404.15625 C 497.445312 414.578125 503.660156 420.835938 511.535156 428.757812 C 514.3125 431.5625 517.1875 434.453125 520.382812 437.808594 C 524.257812 441.867188 527.742188 446.082031 531.347656 451.03125 C 534.546875 451.496094 537.660156 451.824219 540.859375 452.003906 C 542.15625 452.089844 554.230469 452.144531 570.902344 452.144531 L 572.085938 452.144531 C 580.246094 452.144531 588.191406 452.144531 595.71875 452.132812 L 595.734375 452.132812 C 598.058594 452.144531 599.945312 454.035156 599.945312 456.347656 C 599.960938 458.6875 598.058594 460.574219 595.734375 460.589844 C 588.640625 460.601562 581.128906 460.601562 572.082031 460.601562 Z M 438.453125 396.472656 C 439.496094 397.980469 440.664062 399.785156 442.003906 402.027344 C 445.851562 393.609375 447.726562 387.675781 449.65625 377.847656 C 448.429688 379.46875 447.359375 380.839844 446.398438 382.050781 C 445.214844 383.542969 444.214844 384.828125 443.355469 386.066406 C 441.609375 388.59375 440.167969 391.230469 438.453125 396.472656 Z M 417.75 390.847656 C 416.917969 390.847656 416.101562 390.609375 415.414062 390.144531 C 410.3125 386.773438 405.238281 383.25 400.320312 379.835938 C 397.375 377.808594 394.597656 375.875 391.847656 374 C 388.664062 371.8125 385.625 369.441406 382.730469 366.882812 C 382.515625 366.691406 382.320312 366.480469 382.148438 366.25 C 381.972656 366.023438 381.824219 365.777344 381.699219 365.515625 C 381.578125 365.257812 381.480469 364.984375 381.414062 364.707031 C 381.34375 364.425781 381.304688 364.140625 381.296875 363.855469 C 381.285156 363.566406 381.304688 363.28125 381.355469 362.996094 C 381.402344 362.710938 381.480469 362.4375 381.585938 362.167969 C 381.691406 361.898438 381.824219 361.644531 381.980469 361.402344 C 382.136719 361.160156 382.316406 360.9375 382.519531 360.734375 C 385.394531 357.816406 388.566406 354.925781 392.480469 351.640625 L 392.511719 351.613281 C 393.199219 351.050781 393.878906 350.484375 394.570312 349.921875 C 399.347656 345.960938 403.871094 342.226562 408.394531 338.207031 C 409.800781 336.953125 412.015625 336.796875 413.582031 337.867188 C 418.652344 341.324219 424.65625 345.382812 430.644531 349.34375 C 432.222656 350.386719 432.914062 352.304688 432.363281 354.109375 C 431.925781 355.53125 431.378906 357.4375 430.730469 359.636719 C 428.601562 366.910156 425.390625 377.90625 421.722656 388.054688 C 421.285156 389.28125 420.316406 390.226562 419.074219 390.636719 C 418.652344 390.777344 418.203125 390.847656 417.75 390.847656 Z M 391.835938 363.484375 C 393.371094 364.699219 394.9375 365.855469 396.628906 367.023438 C 399.433594 368.925781 402.347656 370.957031 405.179688 372.917969 C 408.578125 375.269531 412.074219 377.710938 415.550781 380.0625 C 418.382812 371.691406 420.851562 363.273438 422.652344 357.128906 C 422.90625 356.253906 423.148438 355.4375 423.371094 354.675781 C 419.417969 352.03125 415.472656 349.375 411.535156 346.710938 C 407.691406 350.035156 403.769531 353.277344 399.980469 356.421875 C 399.304688 356.988281 398.613281 357.550781 397.9375 358.113281 L 397.925781 358.113281 C 395.640625 360.03125 393.65625 361.792969 391.835938 363.484375 Z M 231.671875 484.300781 C 231.125 484.300781 230.601562 484.199219 230.09375 483.996094 C 229.589844 483.792969 229.136719 483.503906 228.746094 483.128906 C 228.351562 482.75 228.042969 482.3125 227.816406 481.816406 C 227.589844 481.320312 227.46875 480.800781 227.445312 480.253906 C 227.402344 479.109375 227.796875 478.039062 228.570312 477.210938 L 259.769531 443.320312 L 255.105469 426.457031 C 254.765625 425.257812 254.980469 423.976562 255.683594 422.949219 L 271.015625 400.433594 C 271.199219 398.839844 271.550781 395.558594 271.917969 391.425781 C 272.367188 386.136719 272.917969 378.441406 272.917969 371.859375 C 272.917969 368.601562 272.777344 365.8125 272.523438 363.78125 L 272.523438 363.765625 C 272.464844 363.34375 272.4375 362.90625 272.4375 362.457031 C 272.605469 356.886719 276.339844 353.011719 279.824219 349.796875 C 283.273438 346.75 287.8125 343.621094 293.703125 340.238281 C 302.707031 335.09375 311.570312 331.300781 313.261719 330.597656 L 313.316406 330.566406 C 313.839844 330.355469 314.375 330.257812 314.9375 330.257812 C 316.644531 330.257812 318.179688 331.273438 318.84375 332.867188 C 319.277344 333.910156 319.265625 335.066406 318.84375 336.109375 C 318.40625 337.152344 317.589844 337.953125 316.546875 338.390625 C 316.53125 338.390625 316.515625 338.40625 316.476562 338.421875 C 315.25 338.941406 313.980469 339.503906 313.136719 339.886719 C 310.300781 341.15625 307.503906 342.496094 304.738281 343.902344 C 299.902344 346.355469 290.953125 351.191406 285.445312 356.125 C 282.105469 358.972656 280.722656 361.710938 280.878906 362.441406 C 280.878906 362.527344 280.894531 362.582031 280.894531 362.613281 L 280.894531 362.640625 C 281.21875 365.121094 281.371094 368.125 281.371094 371.859375 C 281.371094 384.023438 279.652344 399.363281 279.316406 402.324219 C 279.300781 402.410156 279.300781 402.449219 279.300781 402.449219 C 279.214844 403.113281 278.960938 403.789062 278.597656 404.339844 L 263.773438 426.09375 L 268.550781 443.332031 C 268.929688 444.730469 268.5625 446.25 267.578125 447.324219 L 234.785156 482.949219 C 233.980469 483.808594 232.855469 484.300781 231.671875 484.300781 Z M 61.273438 479.703125 C 53.128906 479.703125 47.085938 478.546875 46.335938 478.40625 L 46.324219 478.40625 C 46.050781 478.351562 45.789062 478.265625 45.53125 478.160156 C 45.277344 478.050781 45.035156 477.917969 44.804688 477.765625 C 44.574219 477.609375 44.359375 477.433594 44.164062 477.234375 C 43.96875 477.039062 43.796875 476.824219 43.640625 476.59375 C 43.488281 476.359375 43.359375 476.117188 43.253906 475.859375 C 43.148438 475.601562 43.066406 475.339844 43.011719 475.066406 C 42.960938 474.792969 42.933594 474.519531 42.933594 474.242188 C 42.933594 473.964844 42.957031 473.6875 43.011719 473.414062 C 43.476562 471.175781 45.746094 469.652344 48 470.117188 C 48.015625 470.117188 48.042969 470.117188 48.097656 470.132812 C 48.226562 470.160156 48.492188 470.203125 48.929688 470.273438 C 49.832031 470.425781 50.761719 470.554688 51.707031 470.667969 C 53.890625 470.933594 57.328125 471.261719 61.273438 471.261719 C 66.488281 471.261719 71.28125 470.707031 75.507812 469.652344 C 77.746094 469.101562 80.085938 470.511719 80.636719 472.738281 C 81.199219 474.996094 79.820312 477.304688 77.550781 477.871094 C 72.632812 479.085938 67.164062 479.703125 61.273438 479.703125 Z M 695.355469 460.558594 L 667.074219 460.472656 C 665.949219 460.472656 664.875 460.039062 664.085938 459.234375 C 663.285156 458.429688 662.847656 457.371094 662.863281 456.246094 C 662.863281 453.917969 664.75 452.03125 667.074219 452.03125 L 667.089844 452.03125 L 695.371094 452.101562 C 696.511719 452.101562 697.570312 452.550781 698.359375 453.34375 C 699.160156 454.144531 699.597656 455.214844 699.585938 456.34375 C 699.582031 456.621094 699.554688 456.898438 699.5 457.167969 C 699.449219 457.441406 699.367188 457.703125 699.261719 457.960938 C 699.152344 458.214844 699.023438 458.460938 698.867188 458.6875 C 698.714844 458.917969 698.539062 459.132812 698.34375 459.328125 C 698.148438 459.523438 697.933594 459.699219 697.703125 459.851562 C 697.472656 460.003906 697.230469 460.136719 696.972656 460.242188 C 696.714844 460.347656 696.453125 460.425781 696.179688 460.480469 C 695.910156 460.53125 695.632812 460.558594 695.355469 460.558594 Z M 575.71875 270.105469 C 575.441406 270.101562 575.167969 270.074219 574.894531 270.019531 C 574.625 269.964844 574.359375 269.886719 574.105469 269.777344 C 573.851562 269.671875 573.605469 269.539062 573.375 269.386719 C 573.148438 269.230469 572.933594 269.058594 572.738281 268.859375 C 572.542969 268.664062 572.367188 268.449219 572.214844 268.21875 C 572.0625 267.988281 571.929688 267.746094 571.824219 267.488281 C 571.71875 267.234375 571.640625 266.96875 571.585938 266.699219 C 571.53125 266.425781 571.503906 266.152344 571.503906 265.875 L 571.503906 250.847656 C 571.503906 250.570312 571.53125 250.296875 571.585938 250.023438 C 571.640625 249.75 571.71875 249.488281 571.824219 249.230469 C 571.933594 248.976562 572.0625 248.730469 572.214844 248.5 C 572.367188 248.269531 572.542969 248.058594 572.738281 247.863281 C 572.933594 247.664062 573.148438 247.488281 573.375 247.335938 C 573.605469 247.179688 573.851562 247.050781 574.105469 246.945312 C 574.359375 246.835938 574.625 246.757812 574.894531 246.703125 C 575.167969 246.648438 575.441406 246.617188 575.71875 246.617188 C 575.996094 246.617188 576.273438 246.644531 576.542969 246.699219 C 576.816406 246.753906 577.082031 246.832031 577.339844 246.9375 C 577.59375 247.046875 577.839844 247.175781 578.070312 247.328125 C 578.300781 247.484375 578.515625 247.660156 578.714844 247.855469 C 578.910156 248.050781 579.085938 248.265625 579.242188 248.496094 C 579.394531 248.726562 579.527344 248.972656 579.632812 249.226562 C 579.742188 249.484375 579.820312 249.75 579.875 250.019531 C 579.929688 250.292969 579.960938 250.570312 579.960938 250.847656 L 579.960938 265.875 C 579.960938 268.199219 578.058594 270.105469 575.71875 270.105469 Z M 619.246094 295.238281 C 618.492188 295.242188 617.785156 295.050781 617.128906 294.675781 C 616.476562 294.296875 615.960938 293.78125 615.582031 293.125 C 615.019531 292.152344 614.863281 291.011719 615.160156 289.925781 C 615.457031 288.824219 616.160156 287.921875 617.132812 287.34375 L 630.179688 279.84375 C 630.8125 279.480469 631.546875 279.28125 632.28125 279.28125 C 633.789062 279.28125 635.195312 280.097656 635.945312 281.394531 C 636.507812 282.382812 636.664062 283.523438 636.367188 284.609375 C 636.070312 285.695312 635.367188 286.613281 634.394531 287.175781 L 621.359375 294.675781 C 620.714844 295.054688 619.980469 295.238281 619.246094 295.238281 Z M 632.28125 353.054688 C 631.546875 353.054688 630.816406 352.855469 630.183594 352.488281 L 617.132812 344.976562 C 616.121094 344.394531 615.460938 343.539062 615.160156 342.410156 C 614.867188 341.324219 615.019531 340.183594 615.585938 339.210938 C 616.332031 337.898438 617.738281 337.082031 619.246094 337.082031 C 619.996094 337.082031 620.714844 337.277344 621.363281 337.644531 L 634.394531 345.160156 C 634.636719 345.296875 634.863281 345.457031 635.070312 345.640625 C 635.277344 345.824219 635.46875 346.027344 635.636719 346.246094 C 635.804688 346.46875 635.953125 346.703125 636.074219 346.953125 C 636.199219 347.199219 636.296875 347.460938 636.367188 347.726562 C 636.441406 347.996094 636.484375 348.269531 636.503906 348.546875 C 636.523438 348.824219 636.511719 349.097656 636.476562 349.375 C 636.441406 349.648438 636.378906 349.917969 636.289062 350.183594 C 636.199219 350.445312 636.085938 350.699219 635.949219 350.9375 C 635.566406 351.589844 635.050781 352.105469 634.394531 352.484375 C 633.742188 352.863281 633.035156 353.050781 632.28125 353.054688 Z M 599.6875 278.859375 C 598.957031 278.859375 598.222656 278.660156 597.574219 278.28125 C 597.335938 278.140625 597.109375 277.980469 596.902344 277.796875 C 596.695312 277.613281 596.507812 277.410156 596.335938 277.191406 C 596.167969 276.96875 596.023438 276.734375 595.902344 276.484375 C 595.78125 276.234375 595.683594 275.976562 595.613281 275.707031 C 595.539062 275.441406 595.496094 275.167969 595.476562 274.890625 C 595.460938 274.613281 595.46875 274.335938 595.507812 274.0625 C 595.542969 273.785156 595.605469 273.519531 595.695312 273.253906 C 595.785156 272.992188 595.898438 272.742188 596.039062 272.5 L 600.632812 264.5625 C 601.378906 263.253906 602.789062 262.433594 604.296875 262.433594 C 605.03125 262.433594 605.761719 262.632812 606.410156 263.011719 C 608.425781 264.183594 609.117188 266.777344 607.949219 268.792969 L 603.355469 276.742188 C 602.972656 277.398438 602.457031 277.914062 601.804688 278.289062 C 601.148438 278.667969 600.445312 278.855469 599.6875 278.859375 Z M 632.859375 320.390625 L 623.660156 320.390625 C 621.335938 320.390625 619.429688 318.5 619.429688 316.160156 C 619.429688 313.835938 621.335938 311.929688 623.660156 311.929688 L 632.859375 311.929688 C 635.1875 311.929688 637.089844 313.835938 637.089844 316.160156 C 637.089844 318.5 635.1875 320.390625 632.859375 320.390625 Z M 551.761719 278.859375 C 550.253906 278.859375 548.847656 278.039062 548.085938 276.730469 L 543.519531 268.777344 C 542.957031 267.804688 542.800781 266.664062 543.097656 265.578125 C 543.390625 264.480469 544.097656 263.578125 545.070312 263.011719 C 545.71875 262.632812 546.4375 262.449219 547.183594 262.449219 C 548.691406 262.449219 550.085938 263.253906 550.847656 264.5625 L 555.425781 272.515625 C 556.582031 274.53125 555.878906 277.125 553.863281 278.292969 C 553.214844 278.660156 552.496094 278.859375 551.761719 278.859375 Z M 582.34375 354.167969 C 581.398438 354.167969 580.453125 353.84375 579.707031 353.25 C 574.507812 349.105469 570.109375 344.734375 564.542969 338.152344 C 561.726562 334.8125 558.441406 331.300781 555.257812 327.902344 C 551.058594 323.433594 546.714844 318.796875 543.179688 314.285156 L 541.546875 312.242188 C 540.8125 311.351562 540.09375 310.480469 539.390625 309.648438 C 538.933594 309.113281 538.632812 308.507812 538.480469 307.824219 C 538.332031 307.136719 538.351562 306.457031 538.546875 305.785156 C 540.742188 297.820312 545.589844 290.628906 552.171875 285.554688 C 558.976562 280.3125 567.109375 277.546875 575.734375 277.535156 C 586.046875 277.546875 595.742188 281.566406 603.027344 288.855469 C 610.328125 296.15625 614.332031 305.855469 614.332031 316.160156 C 614.332031 334.613281 601.210938 350.558594 583.160156 354.097656 C 582.890625 354.140625 582.617188 354.164062 582.34375 354.167969 Z M 547.339844 305.980469 L 549.84375 309.070312 C 552.976562 313.101562 556.960938 317.359375 561.191406 321.871094 C 564.5 325.410156 567.925781 329.058594 571.011719 332.683594 C 575.789062 338.351562 579.269531 341.902344 583.414062 345.355469 C 596.660156 341.875 605.890625 329.878906 605.875 316.160156 C 605.84375 299.554688 592.320312 286.035156 575.730469 285.992188 L 575.703125 285.992188 C 563.007812 285.992188 551.621094 294.027344 547.339844 305.980469 Z M 150.980469 318.9375 L 107.863281 318.9375 C 102.28125 318.921875 97.742188 314.382812 97.730469 308.816406 C 97.742188 303.246094 102.28125 298.695312 107.863281 298.679688 L 130.367188 298.679688 C 131.5625 294.308594 135.582031 291.234375 140.132812 291.234375 L 152.957031 291.234375 C 153.363281 290.355469 153.882812 289.554688 154.519531 288.824219 C 155.15625 288.09375 155.882812 287.464844 156.695312 286.945312 C 157.511719 286.421875 158.382812 286.023438 159.3125 285.746094 C 160.242188 285.472656 161.1875 285.332031 162.15625 285.328125 L 205.320312 285.328125 C 210.886719 285.34375 215.421875 289.882812 215.4375 295.464844 C 215.4375 295.972656 215.394531 296.480469 215.324219 296.972656 L 229.515625 296.972656 C 235.09375 296.988281 239.632812 301.527344 239.648438 307.097656 C 239.632812 312.679688 235.09375 317.21875 229.515625 317.21875 L 186.351562 317.21875 C 185.402344 317.21875 184.46875 317.089844 183.554688 316.824219 C 182.640625 316.5625 181.78125 316.175781 180.976562 315.667969 C 180.171875 315.160156 179.453125 314.550781 178.824219 313.835938 C 178.191406 313.125 177.671875 312.339844 177.261719 311.480469 L 160.746094 311.480469 C 160.601562 312.011719 160.414062 312.527344 160.183594 313.027344 C 159.953125 313.53125 159.683594 314.007812 159.375 314.464844 C 159.066406 314.921875 158.726562 315.351562 158.347656 315.753906 C 157.96875 316.15625 157.5625 316.523438 157.121094 316.855469 C 156.683594 317.191406 156.222656 317.488281 155.734375 317.746094 C 155.25 318.007812 154.746094 318.222656 154.222656 318.402344 C 153.703125 318.578125 153.167969 318.710938 152.625 318.800781 C 152.082031 318.890625 151.535156 318.9375 150.980469 318.9375 Z M 107.863281 307.136719 C 106.945312 307.152344 106.183594 307.914062 106.183594 308.816406 C 106.183594 309.71875 106.945312 310.480469 107.863281 310.480469 L 150.980469 310.480469 C 151.882812 310.480469 152.660156 309.71875 152.660156 308.816406 C 152.660156 308.660156 152.632812 308.503906 152.589844 308.320312 C 152.25 307.039062 152.519531 305.714844 153.335938 304.671875 C 154.140625 303.628906 155.363281 303.023438 156.675781 303.023438 L 180.488281 303.023438 C 182.800781 303.023438 184.660156 304.839844 184.71875 307.152344 C 184.71875 307.984375 185.507812 308.773438 186.324219 308.773438 L 229.515625 308.773438 C 230.429688 308.757812 231.191406 307.996094 231.191406 307.09375 C 231.191406 306.195312 230.429688 305.433594 229.515625 305.433594 L 206.671875 305.433594 C 204.53125 305.433594 202.710938 303.824219 202.472656 301.695312 C 202.21875 299.566406 203.601562 297.59375 205.671875 297.085938 C 206.433594 296.917969 206.996094 296.199219 206.984375 295.464844 C 206.984375 294.5625 206.222656 293.789062 205.320312 293.789062 L 162.15625 293.789062 C 161.253906 293.789062 160.496094 294.5625 160.480469 295.464844 C 160.480469 296.578125 160.027344 297.664062 159.253906 298.453125 C 158.464844 299.242188 157.367188 299.695312 156.265625 299.695312 L 140.132812 299.695312 C 139.867188 299.699219 139.621094 299.761719 139.386719 299.878906 C 139.152344 300 138.957031 300.167969 138.800781 300.378906 C 138.644531 300.589844 138.542969 300.824219 138.496094 301.085938 C 138.453125 301.34375 138.464844 301.597656 138.539062 301.851562 C 138.863281 303.132812 138.597656 304.460938 137.792969 305.503906 C 137.390625 306.023438 136.898438 306.425781 136.308594 306.714844 C 135.71875 307 135.09375 307.140625 134.4375 307.136719 Z M 396.164062 261.082031 L 353.027344 261.082031 C 347.460938 261.066406 342.925781 256.527344 342.910156 250.960938 C 342.925781 245.390625 347.460938 240.835938 353.027344 240.835938 L 375.546875 240.835938 C 375.691406 240.304688 375.878906 239.789062 376.109375 239.289062 C 376.339844 238.785156 376.609375 238.304688 376.917969 237.847656 C 377.226562 237.390625 377.566406 236.960938 377.945312 236.558594 C 378.324219 236.160156 378.730469 235.789062 379.171875 235.453125 C 379.609375 235.121094 380.070312 234.820312 380.558594 234.5625 C 381.042969 234.300781 381.546875 234.082031 382.070312 233.90625 C 382.59375 233.730469 383.125 233.59375 383.667969 233.503906 C 384.214844 233.414062 384.761719 233.367188 385.3125 233.367188 L 398.148438 233.367188 C 398.558594 232.488281 399.082031 231.683594 399.722656 230.957031 C 400.359375 230.226562 401.085938 229.601562 401.902344 229.082031 C 402.71875 228.558594 403.589844 228.160156 404.519531 227.886719 C 405.449219 227.613281 406.398438 227.476562 407.367188 227.472656 L 450.5 227.472656 C 456.066406 227.488281 460.601562 232.027344 460.617188 237.609375 C 460.617188 238.101562 460.574219 238.609375 460.503906 239.117188 L 474.695312 239.117188 C 480.273438 239.132812 484.8125 243.671875 484.828125 249.238281 C 484.8125 254.808594 480.273438 259.363281 474.695312 259.363281 L 431.5625 259.363281 C 427.6875 259.363281 424.105469 257.105469 422.441406 253.625 L 405.929688 253.625 C 405.78125 254.15625 405.59375 254.671875 405.363281 255.171875 C 405.132812 255.671875 404.863281 256.152344 404.554688 256.609375 C 404.246094 257.066406 403.902344 257.492188 403.523438 257.894531 C 403.148438 258.296875 402.738281 258.664062 402.300781 258.996094 C 401.863281 259.332031 401.402344 259.628906 400.914062 259.886719 C 400.429688 260.148438 399.925781 260.367188 399.402344 260.542969 C 398.878906 260.71875 398.347656 260.855469 397.804688 260.945312 C 397.261719 261.035156 396.714844 261.082031 396.164062 261.082031 Z M 353.027344 249.28125 C 352.125 249.28125 351.367188 250.058594 351.367188 250.960938 C 351.367188 251.863281 352.125 252.625 353.027344 252.625 L 396.164062 252.625 C 397.066406 252.625 397.824219 251.863281 397.839844 250.960938 C 397.839844 250.707031 397.824219 250.664062 397.824219 250.648438 C 397.621094 250.007812 397.578125 249.355469 397.6875 248.695312 C 397.796875 248.03125 398.046875 247.429688 398.445312 246.886719 C 398.847656 246.347656 399.347656 245.925781 399.949219 245.625 C 400.546875 245.320312 401.183594 245.167969 401.855469 245.164062 L 425.667969 245.164062 C 427.949219 245.164062 429.839844 247.027344 429.894531 249.296875 C 429.894531 250.140625 430.6875 250.902344 431.53125 250.902344 L 474.691406 250.902344 C 475.582031 250.902344 476.371094 250.128906 476.371094 249.238281 C 476.371094 248.335938 475.59375 247.578125 474.691406 247.578125 L 451.851562 247.578125 C 451.332031 247.574219 450.835938 247.480469 450.351562 247.292969 C 449.871094 247.109375 449.4375 246.84375 449.050781 246.5 C 448.667969 246.15625 448.355469 245.753906 448.117188 245.296875 C 447.878906 244.839844 447.730469 244.351562 447.667969 243.839844 C 447.609375 243.328125 447.640625 242.820312 447.765625 242.316406 C 447.890625 241.816406 448.101562 241.355469 448.394531 240.929688 C 448.6875 240.503906 449.046875 240.144531 449.472656 239.855469 C 449.898438 239.5625 450.363281 239.355469 450.867188 239.230469 C 451.597656 239.0625 452.175781 238.34375 452.160156 237.609375 C 452.160156 236.691406 451.402344 235.933594 450.496094 235.933594 L 407.367188 235.933594 C 406.460938 235.933594 405.675781 236.722656 405.660156 237.609375 C 405.660156 238.738281 405.222656 239.792969 404.433594 240.597656 C 403.632812 241.386719 402.574219 241.824219 401.449219 241.824219 L 385.3125 241.824219 C 384.410156 241.839844 383.648438 242.601562 383.648438 243.503906 C 383.648438 243.65625 383.664062 243.8125 383.71875 243.980469 C 384.042969 245.265625 383.777344 246.605469 382.972656 247.648438 C 382.574219 248.164062 382.082031 248.566406 381.496094 248.855469 C 380.90625 249.144531 380.289062 249.285156 379.632812 249.28125 Z M 531.414062 491.476562 L 477.863281 491.476562 C 477.585938 491.476562 477.3125 491.445312 477.042969 491.390625 C 476.769531 491.335938 476.503906 491.257812 476.25 491.148438 C 475.992188 491.042969 475.75 490.914062 475.519531 490.757812 C 475.289062 490.605469 475.074219 490.429688 474.878906 490.234375 C 474.683594 490.035156 474.507812 489.824219 474.355469 489.59375 C 474.199219 489.363281 474.070312 489.117188 473.964844 488.863281 C 473.855469 488.605469 473.777344 488.34375 473.722656 488.070312 C 473.667969 487.796875 473.636719 487.523438 473.636719 487.246094 C 473.636719 484.921875 475.542969 483.015625 477.863281 483.015625 L 531.414062 483.015625 C 533.753906 483.015625 535.640625 484.921875 535.640625 487.246094 C 535.640625 489.570312 533.753906 491.476562 531.414062 491.476562 Z M 429.519531 528.394531 L 294.464844 528.394531 C 292.136719 528.394531 290.234375 526.492188 290.234375 524.167969 C 290.234375 521.824219 292.136719 519.9375 294.464844 519.9375 L 429.519531 519.9375 C 431.84375 519.9375 433.730469 521.824219 433.730469 524.167969 C 433.730469 524.445312 433.703125 524.71875 433.648438 524.988281 C 433.597656 525.261719 433.515625 525.523438 433.410156 525.78125 C 433.304688 526.039062 433.175781 526.28125 433.023438 526.511719 C 432.867188 526.742188 432.695312 526.957031 432.496094 527.152344 C 432.300781 527.347656 432.089844 527.523438 431.859375 527.679688 C 431.628906 527.832031 431.386719 527.964844 431.132812 528.070312 C 430.875 528.175781 430.613281 528.257812 430.339844 528.3125 C 430.070312 528.367188 429.792969 528.394531 429.519531 528.394531 Z M 455.671875 504.542969 L 376.800781 504.542969 C 374.460938 504.542969 372.570312 502.640625 372.570312 500.316406 C 372.570312 497.992188 374.460938 496.085938 376.800781 496.085938 L 455.671875 496.085938 C 457.996094 496.085938 459.898438 497.992188 459.898438 500.316406 C 459.898438 502.640625 457.996094 504.542969 455.671875 504.542969 Z M 261.953125 504.542969 L 166.046875 504.542969 C 163.722656 504.542969 161.820312 502.640625 161.820312 500.316406 C 161.820312 497.992188 163.722656 496.085938 166.046875 496.085938 L 261.953125 496.085938 C 264.292969 496.085938 266.179688 497.992188 266.179688 500.316406 C 266.179688 502.640625 264.292969 504.542969 261.953125 504.542969 Z M 645.273438 485.429688 L 591.726562 485.429688 C 589.386719 485.429688 587.5 483.523438 587.5 481.199219 C 587.5 478.859375 589.386719 476.96875 591.726562 476.96875 L 645.273438 476.96875 C 647.597656 476.96875 649.503906 478.859375 649.503906 481.199219 C 649.503906 483.523438 647.601562 485.429688 645.273438 485.429688 Z M 645.273438 485.429688 "/></g></g></svg>