<?xml version="1.0"?>
<svg xmlns="http://www.w3.org/2000/svg" viewBox="0 0 50 50">
    <path d="M 24.400391 9 C 17.800391 9 11.600781 9.4992188 8.3007812 10.199219 C 6.1007812 10.699219 4.2007813 12.2 3.8007812 14.5 C 3.4007813 16.9 3 20.5 3 25 C 3 29.5 3.4003906 33 3.9003906 35.5 C 4.3003906 37.7 6.2003906 39.300781 8.4003906 39.800781 C 11.900391 40.500781 17.9 41 24.5 41 C 31.1 41 37.099609 40.500781 40.599609 39.800781 C 42.799609 39.300781 44.699609 37.8 45.099609 35.5 C 45.499609 33 45.999609 29.400391 46.099609 24.900391 C 46.099609 20.400391 45.599609 16.800781 45.099609 14.300781 C 44.699609 12.100781 42.799609 10.5 40.599609 10 C 37.099609 9.5 31.000391 9 24.400391 9 z M 24.400391 11 C 31.600391 11 37.399219 11.599609 40.199219 12.099609 C 41.699219 12.499609 42.899609 13.500781 43.099609 14.800781 C 43.699609 18.000781 44.099609 21.400391 44.099609 24.900391 C 43.999609 29.200391 43.499609 32.699219 43.099609 35.199219 C 42.799609 37.099219 40.799219 37.700391 40.199219 37.900391 C 36.599219 38.600391 30.599609 39.099609 24.599609 39.099609 C 18.599609 39.099609 12.5 38.700391 9 37.900391 C 7.5 37.500391 6.2996094 36.499219 6.0996094 35.199219 C 5.2996094 32.399219 5 28.7 5 25 C 5 20.4 5.4007813 17.000391 5.8007812 14.900391 C 6.1007812 13.000391 8.1992188 12.399219 8.6992188 12.199219 C 11.999219 11.499219 18.100391 11 24.400391 11 z M 19 17 L 19 33 L 33 25 L 19 17 z M 21 20.400391 L 29 25 L 21 29.599609 L 21 20.400391 z"/>
</svg>
